<svg width="1657" height="628" viewBox="0 0 1657 628" fill="none" xmlns="http://www.w3.org/2000/svg">
<rect x="209.434" y="91.8799" width="204.064" height="225.544" rx="14.576" fill="white" stroke="#E7E7E7" stroke-width="1.53431"/>
<rect x="414.962" y="167.269" width="475.026" height="303.229" rx="14.576" fill="white" stroke="#E7E7E7" stroke-width="1.53431"/>
<rect x="890.346" y="91.9608" width="123.195" height="378.537" rx="14.576" fill="white" stroke="#E7E7E7" stroke-width="1.53431"/>
<rect x="1013.9" y="90.784" width="237.334" height="304.406" rx="14.576" fill="white" stroke="#E7E7E7" stroke-width="1.53431"/>
<rect x="1251.59" y="167.269" width="404.424" height="227.921" rx="14.576" fill="white" stroke="#E7E7E7" stroke-width="1.53431"/>
<rect x="1251.59" y="395.547" width="205.563" height="230.274" rx="14.576" fill="white" stroke="#E7E7E7" stroke-width="1.53431"/>
<rect x="1013.9" y="395.547" width="237.334" height="230.274" rx="14.576" fill="white" stroke="#E7E7E7" stroke-width="1.53431"/>
<rect x="1251.59" y="1.35554" width="146.729" height="165.556" rx="14.576" fill="white" stroke="#E7E7E7" stroke-width="1.53431"/>
<rect x="1012.72" y="1.35554" width="238.511" height="89.0709" rx="14.576" fill="white" stroke="#E7E7E7" stroke-width="1.53431"/>
<rect x="413.786" y="1.35554" width="359.71" height="165.556" rx="14.576" fill="white" stroke="#E7E7E7" stroke-width="1.53431"/>
<rect x="773.854" y="91.9608" width="117.312" height="74.9506" rx="14.576" fill="white" stroke="#E7E7E7" stroke-width="1.53431"/>
<rect x="773.854" y="1.35554" width="238.511" height="90.2476" rx="14.576" fill="white" stroke="#E7E7E7" stroke-width="1.53431"/>
<rect x="209.041" y="317.886" width="205.563" height="152.612" rx="14.576" fill="white" stroke="#E7E7E7" stroke-width="1.53431"/>
<rect x="4.29706" y="399.077" width="205.563" height="71.4206" rx="14.576" fill="white" stroke="#E7E7E7" stroke-width="1.53431"/>
<rect x="4.29706" y="91.9608" width="205.563" height="306.759" rx="14.576" fill="white" stroke="#E7E7E7" stroke-width="1.53431"/>
<path d="M210.039 191.212V105.902C210.039 98.1039 216.361 91.782 224.16 91.782H272.992" stroke="url(#paint0_linear_2086_1325)" stroke-width="2.35338" stroke-linecap="round"/>
<path d="M773.086 100.607V15.2971C773.086 7.49864 766.764 1.17676 758.966 1.17676L710.133 1.17676" stroke="url(#paint1_linear_2086_1325)" stroke-width="2.35338" stroke-linecap="round"/>
<path d="M1251.41 494.799V409.489C1251.41 401.69 1257.73 395.368 1265.53 395.368H1314.36" stroke="url(#paint2_linear_2086_1325)" stroke-width="2.35338" stroke-linecap="round"/>
<path d="M1655.61 296.526L1655.61 381.836C1655.61 389.635 1649.28 395.957 1641.48 395.957L1592.65 395.957" stroke="url(#paint3_linear_2086_1325)" stroke-width="2.35338" stroke-linecap="round"/>
<rect x="1.15803" y="470.356" width="413.466" height="155.466" rx="14.576" fill="white" stroke="#E7E7E7" stroke-width="1.53431"/>
<rect x="415.158" y="470.356" width="413.466" height="155.466" rx="14.576" fill="white" stroke="#E7E7E7" stroke-width="1.53431"/>
<rect x="829.158" y="470.356" width="184.466" height="155.466" rx="14.576" fill="white" stroke="#E7E7E7" stroke-width="1.53431"/>
<path d="M1.17665 570.696L1.17664 485.385C1.17664 477.587 7.49851 471.265 15.2969 471.265L64.1296 471.265" stroke="url(#paint4_linear_2086_1325)" stroke-width="2.35338" stroke-linecap="round"/>
<path d="M414.784 526.393L414.784 611.703C414.784 619.501 408.462 625.823 400.663 625.823L351.831 625.823" stroke="url(#paint5_linear_2086_1325)" stroke-width="2.35338" stroke-linecap="round"/>
<path d="M1251.41 295.938L1251.41 381.248C1251.41 389.047 1245.09 395.368 1237.29 395.368L1188.46 395.368" stroke="url(#paint6_linear_2086_1325)" stroke-width="2.35338" stroke-linecap="round"/>
<path d="M1011.95 101.196V15.8854C1011.95 8.08702 1018.28 1.76514 1026.08 1.76514L1074.91 1.76514" stroke="url(#paint7_linear_2086_1325)" stroke-width="2.35338" stroke-linecap="round"/>
<path d="M890.756 371.246V455.968C890.756 463.766 884.434 470.088 876.635 470.088H544.808" stroke="url(#paint8_linear_2086_1325)" stroke-width="2.35338" stroke-linecap="round"/>
<path d="M1457.33 526.57L1457.33 611.88C1457.33 619.678 1451.01 626 1443.21 626L1394.38 626" stroke="url(#paint9_linear_2086_1325)" stroke-width="2.35338" stroke-linecap="round"/>
<defs>
<linearGradient id="paint0_linear_2086_1325" x1="271.816" y1="91.1936" x2="214.158" y2="194.743" gradientUnits="userSpaceOnUse">
<stop stop-color="#14A800" stop-opacity="0"/>
<stop offset="0.419011" stop-color="#14A800"/>
<stop offset="1" stop-color="#14A800" stop-opacity="0"/>
</linearGradient>
<linearGradient id="paint1_linear_2086_1325" x1="711.31" y1="0.588412" x2="768.968" y2="104.137" gradientUnits="userSpaceOnUse">
<stop stop-color="#14A800" stop-opacity="0"/>
<stop offset="0.419011" stop-color="#14A800"/>
<stop offset="1" stop-color="#14A800" stop-opacity="0"/>
</linearGradient>
<linearGradient id="paint2_linear_2086_1325" x1="1313.19" y1="394.78" x2="1255.53" y2="498.329" gradientUnits="userSpaceOnUse">
<stop stop-color="#14A800" stop-opacity="0"/>
<stop offset="0.419011" stop-color="#14A800"/>
<stop offset="1" stop-color="#14A800" stop-opacity="0"/>
</linearGradient>
<linearGradient id="paint3_linear_2086_1325" x1="1593.83" y1="396.545" x2="1651.49" y2="292.996" gradientUnits="userSpaceOnUse">
<stop stop-color="#1EFF00" stop-opacity="0"/>
<stop offset="0.419011" stop-color="#1EFF00"/>
<stop offset="1" stop-color="#1EFF00" stop-opacity="0"/>
</linearGradient>
<linearGradient id="paint4_linear_2086_1325" x1="62.9529" y1="470.677" x2="5.29508" y2="574.226" gradientUnits="userSpaceOnUse">
<stop stop-color="#1EFF00" stop-opacity="0"/>
<stop offset="0.419011" stop-color="#1EFF00"/>
<stop offset="1" stop-color="#1EFF00" stop-opacity="0"/>
</linearGradient>
<linearGradient id="paint5_linear_2086_1325" x1="353.007" y1="626.412" x2="410.665" y2="522.863" gradientUnits="userSpaceOnUse">
<stop stop-color="#14A800" stop-opacity="0"/>
<stop offset="0.419011" stop-color="#14A800"/>
<stop offset="1" stop-color="#14A800" stop-opacity="0"/>
</linearGradient>
<linearGradient id="paint6_linear_2086_1325" x1="1189.64" y1="395.957" x2="1247.29" y2="292.408" gradientUnits="userSpaceOnUse">
<stop stop-color="#14A800" stop-opacity="0"/>
<stop offset="0.419011" stop-color="#14A800"/>
<stop offset="1" stop-color="#14A800" stop-opacity="0"/>
</linearGradient>
<linearGradient id="paint7_linear_2086_1325" x1="1073.73" y1="1.17679" x2="1016.07" y2="104.726" gradientUnits="userSpaceOnUse">
<stop stop-color="#14A800" stop-opacity="0"/>
<stop offset="0.419011" stop-color="#14A800"/>
<stop offset="1" stop-color="#14A800" stop-opacity="0"/>
</linearGradient>
<linearGradient id="paint8_linear_2086_1325" x1="551.275" y1="470.673" x2="564.721" y2="337.177" gradientUnits="userSpaceOnUse">
<stop stop-color="#14A800" stop-opacity="0"/>
<stop offset="0.419011" stop-color="#14A800"/>
<stop offset="1" stop-color="#14A800" stop-opacity="0"/>
</linearGradient>
<linearGradient id="paint9_linear_2086_1325" x1="1395.56" y1="626.588" x2="1453.21" y2="523.039" gradientUnits="userSpaceOnUse">
<stop stop-color="#14A800" stop-opacity="0"/>
<stop offset="0.419011" stop-color="#14A800"/>
<stop offset="1" stop-color="#14A800" stop-opacity="0"/>
</linearGradient>
</defs>
</svg>
